<?xml version="1.0" encoding="UTF-8"?>
<svg width="408px" height="320px" viewBox="0 0 408 320" version="1.1" xmlns="http://www.w3.org/2000/svg" xmlns:xlink="http://www.w3.org/1999/xlink">
    <!-- Generator: Sketch 46 (44423) - http://www.bohemiancoding.com/sketch -->
    <title>caught-up-v0</title>
    <desc>Created with Sketch.</desc>
    <defs>
        <polygon id="path-1" points="0 276.025 228.522 276.025 228.522 -5.68434189e-14 0 -5.68434189e-14"></polygon>
    </defs>
    <g id="Illustrations" stroke="none" stroke-width="1" fill="none" fill-rule="evenodd">
        <g id="caught-up-v0">
            <g id="illustration">
                <polygon id="Stroke-2" points="0 320 408 320 408 0 0 0"></polygon>
                <g id="Page-1" transform="translate(90.000000, 22.000000)">
                    <path d="M176.5217,274.025 L52.5217,274.025 C39.2217,274.025 28.5217,263.325 28.5217,250.025 L28.5217,166.025 C28.5217,152.725 39.2217,142.025 52.5217,142.025 L176.5217,142.025 C189.8217,142.025 200.5217,152.725 200.5217,166.025 L200.5217,250.025 C200.5217,263.325 189.8217,274.025 176.5217,274.025 Z" id="Fill-1" fill="#FFFFFF"></path>
                    <path d="M176.5217,274.025 L52.5217,274.025 C39.2217,274.025 28.5217,263.325 28.5217,250.025 L28.5217,166.025 C28.5217,152.725 39.2217,142.025 52.5217,142.025 L176.5217,142.025 C189.8217,142.025 200.5217,152.725 200.5217,166.025 L200.5217,250.025 C200.5217,263.325 189.8217,274.025 176.5217,274.025 Z" id="Stroke-3" stroke="#BFBFBF" stroke-width="4" stroke-linecap="round" stroke-linejoin="round"></path>
                    <path d="M28.5217,214.025 L200.5217,214.025 L200.5217,166.025 C200.5217,152.725 189.8217,142.025 176.5217,142.025 L52.5217,142.025 C39.2217,142.025 28.5217,152.725 28.5217,166.025 L28.5217,214.025 Z" id="Fill-5" fill="#F3F3F3"></path>
                    <path d="M28.5217,214.025 L200.5217,214.025 L200.5217,166.025 C200.5217,152.725 189.8217,142.025 176.5217,142.025 L52.5217,142.025 C39.2217,142.025 28.5217,152.725 28.5217,166.025 L28.5217,214.025 Z" id="Stroke-7" stroke="#BFBFBF" stroke-width="4" stroke-linecap="round" stroke-linejoin="round"></path>
                    <path d="M108.5217,238.025 L55.5217,238.025 C52.2217,238.025 49.5217,235.325 49.5217,232.025 C49.5217,228.725 52.2217,226.025 55.5217,226.025 L108.5217,226.025 C111.8217,226.025 114.5217,228.725 114.5217,232.025 C114.5217,235.325 111.8217,238.025 108.5217,238.025 Z" id="Stroke-9" stroke="#D9D9D9" stroke-width="4" stroke-linecap="round" stroke-linejoin="round"></path>
                    <path d="M49.5217,262.025 L153.5217,262.025" id="Stroke-11" stroke="#F3F3F3" stroke-width="4" stroke-linecap="round" stroke-linejoin="round"></path>
                    <path d="M49.5217,250.025 L177.5217,250.025" id="Stroke-13" stroke="#F3F3F3" stroke-width="4" stroke-linecap="round" stroke-linejoin="round"></path>
                    <path d="M118.5217,154.025 L110.5217,154.025 C95.0217,154.025 82.5217,141.525 82.5217,126.025 L82.5217,90.025 L146.5217,90.025 L146.5217,126.025 C146.5217,141.525 134.0217,154.025 118.5217,154.025" id="Fill-15" fill="#FFFFFF"></path>
                    <path d="M118.5217,154.025 L110.5217,154.025 C95.0217,154.025 82.5217,141.525 82.5217,126.025 L82.5217,90.025 L146.5217,90.025 L146.5217,126.025 C146.5217,141.525 134.0217,154.025 118.5217,154.025 Z" id="Stroke-17" stroke="#BFBFBF" stroke-width="4" stroke-linecap="round" stroke-linejoin="round"></path>
                    <path d="M74.5217,214.025 L154.5217,214.025 L154.5217,210.025 C154.5217,205.625 150.9217,202.025 146.5217,202.025 L82.5217,202.025 C78.1217,202.025 74.5217,205.625 74.5217,210.025 L74.5217,214.025 Z" id="Fill-19" fill="#D9D9D9"></path>
                    <path d="M74.5217,214.025 L154.5217,214.025 L154.5217,210.025 C154.5217,205.625 150.9217,202.025 146.5217,202.025 L82.5217,202.025 C78.1217,202.025 74.5217,205.625 74.5217,210.025 L74.5217,214.025 Z" id="Stroke-21" stroke="#BFBFBF" stroke-width="4" stroke-linecap="round" stroke-linejoin="round"></path>
                    <path d="M90.5217,170.025 L138.5217,170.025 C142.9217,170.025 146.5217,173.625 146.5217,178.025 L146.5217,202.025 L82.5217,202.025 L82.5217,178.025 C82.5217,173.625 86.1217,170.025 90.5217,170.025" id="Fill-23" fill="#FFFFFF"></path>
                    <path d="M90.5217,170.025 L138.5217,170.025 C142.9217,170.025 146.5217,173.625 146.5217,178.025 L146.5217,202.025 L82.5217,202.025 L82.5217,178.025 C82.5217,173.625 86.1217,170.025 90.5217,170.025 Z" id="Stroke-25" stroke="#BFBFBF" stroke-width="4" stroke-linecap="round" stroke-linejoin="round"></path>
                    <path d="M82.5217,90.025 L146.5217,90.025 C148.7217,90.025 150.5217,88.225 150.5217,86.025 C150.5217,83.825 148.7217,82.025 146.5217,82.025 L82.5217,82.025 C80.3217,82.025 78.5217,83.825 78.5217,86.025 C78.5217,88.225 80.3217,90.025 82.5217,90.025" id="Fill-27" fill="#F3F3F3"></path>
                    <path d="M82.5217,90.025 L146.5217,90.025 C148.7217,90.025 150.5217,88.225 150.5217,86.025 C150.5217,83.825 148.7217,82.025 146.5217,82.025 L82.5217,82.025 C80.3217,82.025 78.5217,83.825 78.5217,86.025 C78.5217,88.225 80.3217,90.025 82.5217,90.025 Z" id="Stroke-29" stroke="#BFBFBF" stroke-width="4" stroke-linecap="round" stroke-linejoin="round"></path>
                    <path d="M114.5217,102.025 C123.3587,102.025 130.5217,109.188 130.5217,118.025 C130.5217,126.862 123.3587,134.025 114.5217,134.025 C105.6847,134.025 98.5217,126.862 98.5217,118.025 C98.5217,109.188 105.6847,102.025 114.5217,102.025 Z" id="Stroke-31" stroke="#A4E1B2" stroke-width="4" stroke-linecap="round" stroke-linejoin="round"></path>
                    <polyline id="Stroke-33" stroke="#A4E1B2" stroke-width="4" stroke-linecap="round" stroke-linejoin="round" points="121.4217 114.225 112.9217 122.725 108.7217 118.425"></polyline>
                    <path d="M126.5217,192.025 L102.5217,192.025 C100.3217,192.025 98.5217,190.225 98.5217,188.025 L98.5217,184.025 C98.5217,181.825 100.3217,180.025 102.5217,180.025 L126.5217,180.025 C128.7217,180.025 130.5217,181.825 130.5217,184.025 L130.5217,188.025 C130.5217,190.225 128.7217,192.025 126.5217,192.025 Z" id="Stroke-35" stroke="#F3F3F3" stroke-width="4" stroke-linecap="round" stroke-linejoin="round"></path>
                    <path d="M146.5217,122.025 C150.9217,122.025 154.5217,118.425 154.5217,114.025 C154.5217,109.625 150.9217,106.025 146.5217,106.025 L146.5217,98.025 C155.3217,98.025 162.5217,105.225 162.5217,114.025 C162.5217,122.825 155.3217,130.025 146.5217,130.025 L146.5217,122.025 Z" id="Fill-37" fill="#F3F3F3"></path>
                    <path d="M146.5217,122.025 C150.9217,122.025 154.5217,118.425 154.5217,114.025 C154.5217,109.625 150.9217,106.025 146.5217,106.025 L146.5217,98.025 C155.3217,98.025 162.5217,105.225 162.5217,114.025 C162.5217,122.825 155.3217,130.025 146.5217,130.025 L146.5217,122.025 Z" id="Stroke-39" stroke="#BFBFBF" stroke-width="4" stroke-linecap="round" stroke-linejoin="round"></path>
                    <path d="M82.5217,122.025 C78.1217,122.025 74.5217,118.425 74.5217,114.025 C74.5217,109.625 78.1217,106.025 82.5217,106.025 L82.5217,98.025 C73.7217,98.025 66.5217,105.225 66.5217,114.025 C66.5217,122.825 73.7217,130.025 82.5217,130.025 L82.5217,122.025 Z" id="Fill-41" fill="#F3F3F3"></path>
                    <path d="M82.5217,122.025 C78.1217,122.025 74.5217,118.425 74.5217,114.025 C74.5217,109.625 78.1217,106.025 82.5217,106.025 L82.5217,98.025 C73.7217,98.025 66.5217,105.225 66.5217,114.025 C66.5217,122.825 73.7217,130.025 82.5217,130.025 L82.5217,122.025 Z" id="Stroke-43" stroke="#BFBFBF" stroke-width="4" stroke-linecap="round" stroke-linejoin="round"></path>
                    <mask id="mask-2" fill="white">
                        <use xlink:href="#path-1"></use>
                    </mask>
                    <g id="Clip-46"></g>
                    <polygon id="Fill-45" fill="#FFFFFF" mask="url(#mask-2)" points="110.522 170.025 118.522 170.025 118.522 154.025 110.522 154.025"></polygon>
                    <polygon id="Stroke-47" stroke="#BFBFBF" stroke-width="4" stroke-linecap="round" stroke-linejoin="round" mask="url(#mask-2)" points="110.522 170.025 118.522 170.025 118.522 154.025 110.522 154.025"></polygon>
                    <path d="M81.5217,36.725 L83.1217,41.725 C83.2217,42.025 83.5217,42.225 83.8217,42.225 L89.1217,42.225 C89.8217,42.225 90.1217,43.125 89.5217,43.625 L85.2217,46.725 C84.9217,46.925 84.8217,47.225 84.9217,47.525 L86.5217,52.525 C86.7217,53.225 85.9217,53.825 85.3217,53.325 L81.0217,50.225 C80.7217,50.025 80.4217,50.025 80.1217,50.225 L75.8217,53.325 C75.2217,53.725 74.4217,53.225 74.6217,52.525 L76.2217,47.525 C76.3217,47.225 76.2217,46.925 75.9217,46.725 L71.6217,43.625 C71.0217,43.225 71.3217,42.225 72.0217,42.225 L77.3217,42.225 C77.6217,42.225 77.9217,42.025 78.0217,41.725 L79.6217,36.725 C80.3217,36.125 81.3217,36.125 81.5217,36.725 Z" id="Stroke-48" stroke="#F3F3F3" stroke-width="4" stroke-linecap="round" stroke-linejoin="round" mask="url(#mask-2)"></path>
                    <path d="M179.6217,175.725 L181.2217,180.725 C181.3217,181.025 181.6217,181.225 181.9217,181.225 L187.2217,181.225 C187.9217,181.225 188.2217,182.125 187.6217,182.625 L183.3217,185.725 C183.0217,185.925 182.9217,186.225 183.0217,186.525 L184.6217,191.525 C184.8217,192.225 184.0217,192.825 183.4217,192.325 L179.1217,189.225 C178.8217,189.025 178.5217,189.025 178.2217,189.225 L173.9217,192.325 C173.3217,192.725 172.5217,192.225 172.7217,191.525 L174.3217,186.525 C174.4217,186.225 174.3217,185.925 174.0217,185.725 L169.7217,182.625 C169.1217,182.225 169.4217,181.225 170.1217,181.225 L175.4217,181.225 C175.7217,181.225 176.0217,181.025 176.1217,180.725 L177.7217,175.725 C178.4217,175.125 179.3217,175.125 179.6217,175.725 Z" id="Stroke-49" stroke="#D9D9D9" stroke-width="4" stroke-linecap="round" stroke-linejoin="round" mask="url(#mask-2)"></path>
                    <path d="M151.6217,3.125 L153.4217,8.725 C153.6217,9.425 154.3217,9.825 155.0217,9.825 L160.9217,9.825 C162.5217,9.825 163.2217,11.825 161.9217,12.825 L157.1217,16.325 C156.5217,16.725 156.3217,17.525 156.5217,18.125 L158.3217,23.725 C158.8217,25.225 157.1217,26.525 155.8217,25.525 L151.0217,22.025 C150.4217,21.625 149.6217,21.625 149.1217,22.025 L144.3217,25.525 C143.0217,26.425 141.3217,25.225 141.8217,23.725 L143.6217,18.125 C143.8217,17.425 143.6217,16.725 143.0217,16.325 L138.2217,12.825 C136.9217,11.925 137.6217,9.825 139.2217,9.825 L145.1217,9.825 C145.8217,9.825 146.4217,9.325 146.7217,8.725 L148.5217,3.125 C149.0217,1.625 151.1217,1.625 151.6217,3.125 Z" id="Stroke-50" stroke="#F3F3F3" stroke-width="4" stroke-linecap="round" stroke-linejoin="round" mask="url(#mask-2)"></path>
                    <path d="M209.8217,67.825 L208.3217,72.525 C208.2217,72.825 207.9217,73.025 207.6217,73.025 L202.7217,73.025 C202.0217,73.025 201.7217,73.925 202.3217,74.425 L206.3217,77.325 C206.6217,77.525 206.7217,77.825 206.6217,78.125 L205.1217,82.825 C204.9217,83.525 205.7217,84.125 206.3217,83.625 L210.3217,80.725 C210.6217,80.525 210.9217,80.525 211.2217,80.725 L215.2217,83.625 C215.8217,84.025 216.6217,83.525 216.4217,82.825 L214.9217,78.125 C214.8217,77.825 214.9217,77.525 215.2217,77.325 L219.2217,74.425 C219.8217,74.025 219.5217,73.025 218.8217,73.025 L213.9217,73.025 C213.6217,73.025 213.3217,72.825 213.2217,72.525 L211.7217,67.825 C211.0217,67.225 210.0217,67.225 209.8217,67.825 Z" id="Stroke-51" stroke="#D9D9D9" stroke-width="4" stroke-linecap="round" stroke-linejoin="round" mask="url(#mask-2)"></path>
                    <path d="M9.8217,105.225 L8.3217,109.925 C8.2217,110.225 7.9217,110.425 7.6217,110.425 L2.7217,110.425 C2.0217,110.425 1.7217,111.325 2.3217,111.825 L6.3217,114.725 C6.6217,114.925 6.7217,115.225 6.6217,115.525 L5.1217,120.225 C4.9217,120.925 5.7217,121.525 6.3217,121.025 L10.3217,118.125 C10.6217,117.925 10.9217,117.925 11.2217,118.125 L15.2217,121.025 C15.8217,121.425 16.6217,120.925 16.4217,120.225 L14.9217,115.525 C14.8217,115.225 14.9217,114.925 15.2217,114.725 L19.2217,111.825 C19.8217,111.425 19.5217,110.425 18.8217,110.425 L13.9217,110.425 C13.6217,110.425 13.3217,110.225 13.2217,109.925 L11.7217,105.225 C11.0217,104.525 10.0217,104.525 9.8217,105.225 Z" id="Stroke-52" stroke="#D9D9D9" stroke-width="4" stroke-linecap="round" stroke-linejoin="round" mask="url(#mask-2)"></path>
                    <path d="M202.5217,27.025 C203.0737,27.025 203.5217,27.473 203.5217,28.025 C203.5217,28.577 203.0737,29.025 202.5217,29.025 C201.9697,29.025 201.5217,28.577 201.5217,28.025 C201.5217,27.473 201.9697,27.025 202.5217,27.025 Z" id="Stroke-53" stroke="#F3F3F3" stroke-width="4" stroke-linecap="round" stroke-linejoin="round" mask="url(#mask-2)"></path>
                    <path d="M161.5217,158.025 C162.0737,158.025 162.5217,158.473 162.5217,159.025 C162.5217,159.577 162.0737,160.025 161.5217,160.025 C160.9697,160.025 160.5217,159.577 160.5217,159.025 C160.5217,158.473 160.9697,158.025 161.5217,158.025 Z" id="Stroke-54" stroke="#D9D9D9" stroke-width="4" stroke-linecap="round" stroke-linejoin="round" mask="url(#mask-2)"></path>
                    <path d="M169.5217,60.025 C170.0737,60.025 170.5217,60.473 170.5217,61.025 C170.5217,61.577 170.0737,62.025 169.5217,62.025 C168.9697,62.025 168.5217,61.577 168.5217,61.025 C168.5217,60.473 168.9697,60.025 169.5217,60.025 Z" id="Stroke-55" stroke="#F3F3F3" stroke-width="4" stroke-linecap="round" stroke-linejoin="round" mask="url(#mask-2)"></path>
                    <path d="M43.5217,13.025 C44.0737,13.025 44.5217,13.473 44.5217,14.025 C44.5217,14.577 44.0737,15.025 43.5217,15.025 C42.9697,15.025 42.5217,14.577 42.5217,14.025 C42.5217,13.473 42.9697,13.025 43.5217,13.025 Z" id="Stroke-56" stroke="#F3F3F3" stroke-width="4" stroke-linecap="round" stroke-linejoin="round" mask="url(#mask-2)"></path>
                    <path d="M28.5217,65.025 C30.7307,65.025 32.5217,66.816 32.5217,69.025 C32.5217,71.234 30.7307,73.025 28.5217,73.025 C26.3127,73.025 24.5217,71.234 24.5217,69.025 C24.5217,66.816 26.3127,65.025 28.5217,65.025 Z" id="Stroke-57" stroke="#F3F3F3" stroke-width="4" stroke-linecap="round" stroke-linejoin="round" mask="url(#mask-2)"></path>
                    <path d="M222.5217,126.025 C224.7307,126.025 226.5217,127.816 226.5217,130.025 C226.5217,132.234 224.7307,134.025 222.5217,134.025 C220.3127,134.025 218.5217,132.234 218.5217,130.025 C218.5217,127.816 220.3127,126.025 222.5217,126.025 Z" id="Stroke-58" stroke="#F3F3F3" stroke-width="4" stroke-linecap="round" stroke-linejoin="round" mask="url(#mask-2)"></path>
                    <path d="M51.5217,170.025 C53.7307,170.025 55.5217,171.816 55.5217,174.025 C55.5217,176.234 53.7307,178.025 51.5217,178.025 C49.3127,178.025 47.5217,176.234 47.5217,174.025 C47.5217,171.816 49.3127,170.025 51.5217,170.025 Z" id="Stroke-59" stroke="#D9D9D9" stroke-width="4" stroke-linecap="round" stroke-linejoin="round" mask="url(#mask-2)"></path>
                </g>
            </g>
        </g>
    </g>
</svg>